<svg id="Capa_1" enable-background="new 0 0 512.021 512.021" height="512" viewBox="0 0 512.021 512.021" width="512" xmlns="http://www.w3.org/2000/svg"><g><path d="m8.344 511.35c18.103 3.063 35.752-4.503 45.987-19.862 4.915-7.371 12.817-11.598 21.68-11.598s16.765 4.227 21.679 11.596c8.561 12.844 22.886 20.512 38.321 20.512s29.761-7.668 38.32-20.51c4.915-7.371 12.817-11.598 21.68-11.598s16.765 4.227 21.679 11.596c8.561 12.844 22.886 20.512 38.321 20.512s29.761-7.668 38.32-20.51c4.915-7.371 12.817-11.598 21.68-11.598s16.765 4.227 21.679 11.596c8.561 12.844 22.886 20.512 38.321 20.512s29.761-7.668 38.32-20.51c4.915-7.371 12.817-11.598 21.68-11.598s16.765 4.227 21.679 11.595c10.211 15.323 27.831 22.936 45.988 19.865 5.445-.92 9.114-6.081 8.193-11.527-.92-5.445-6.076-9.117-11.527-8.193-10.268 1.734-20.236-2.569-26.013-11.238-8.561-12.838-22.886-20.502-38.32-20.502s-29.759 7.664-38.321 20.504c-4.915 7.374-12.816 11.604-21.679 11.604s-16.764-4.229-21.68-11.605c-8.561-12.838-22.886-20.502-38.32-20.502s-29.759 7.664-38.321 20.504c-4.915 7.374-12.816 11.604-21.679 11.604-8.862 0-16.764-4.229-21.68-11.605-8.561-12.838-22.886-20.502-38.32-20.502s-29.759 7.664-38.321 20.504c-4.915 7.374-12.816 11.604-21.679 11.604s-16.764-4.229-21.68-11.605c-8.561-12.838-22.886-20.502-38.32-20.502s-29.759 7.664-38.321 20.504c-5.776 8.667-15.745 12.971-26.012 11.236-5.448-.922-10.606 2.748-11.527 8.193-.921 5.443 2.747 10.604 8.193 11.524z"/><path d="m8.344 452.46c18.155 3.067 35.773-4.538 45.986-19.852 5.421-8.128 14.843-12.511 24.583-11.448 7.746.848 14.416 4.915 18.778 11.448 8.565 12.842 22.879 20.502 38.305 20.501h.082c15.4-.027 29.699-7.689 38.254-20.504 4.91-7.369 12.804-11.599 21.658-11.604h.019c24.762 0 23.72 32.108 60.001 32.108 36.813 0 34.812-32.108 60.001-32.108h.019c8.854.005 16.748 4.235 21.663 11.611 8.55 12.808 22.849 20.471 38.25 20.498h.082c15.425 0 29.74-7.66 38.302-20.497 4.365-6.538 11.035-10.605 18.781-11.453 9.746-1.067 19.162 3.32 24.583 11.448 10.231 15.34 27.86 22.913 45.986 19.852 5.445-.921 9.114-6.082 8.193-11.527-.92-5.445-6.076-9.112-11.527-8.193-10.27 1.739-20.237-2.566-26.014-11.229-7.979-11.964-20.856-19.316-34.871-20.359-17.452-52.865-67.144-89.152-123.447-89.152h-20v-56.106c26.008-5.476 48.561-16.139 64.738-30.659 9.877 3.165 20.03 4.766 30.262 4.766 4.243 0 8.508-.259 12.677-.77 5.482-.672 9.381-5.661 8.709-11.143-.671-5.482-5.667-9.383-11.142-8.709-3.365.413-6.812.622-10.244.622-9.854 0-19.641-1.872-29.091-5.564-3.744-1.463-8.004-.541-10.808 2.342-18.595 19.117-54.16 33.341-95.102 33.287-33.774-.045-72.632-10.186-95.102-33.287-2.805-2.882-7.063-3.804-10.808-2.342-9.45 3.692-19.237 5.564-29.091 5.564-35.841 0-65-22.43-65-50 0-24.407 22.848-45.066 54.328-49.122 3.037-.391 5.728-2.153 7.301-4.78s1.856-5.83.768-8.692c-1.59-4.183-2.397-8.357-2.397-12.406 0-19.299 15.701-35 35-35 7.385 0 14.525 2.391 20.648 6.914 2.202 1.627 4.975 2.278 7.67 1.806 2.696-.474 5.08-2.031 6.597-4.31 14.124-21.226 40.979-34.411 70.087-34.411s55.962 13.185 70.084 34.41c1.517 2.279 3.901 3.836 6.597 4.31 2.696.472 5.468-.179 7.67-1.806 6.124-4.523 13.264-6.914 20.649-6.914 19.299 0 35 15.701 35 35 0 4.049-.807 8.223-2.397 12.406-1.088 2.862-.805 6.065.768 8.692 1.574 2.627 4.264 4.389 7.301 4.78 31.479 4.056 54.328 24.715 54.328 49.122 0 .715-.02 1.441-.06 2.157-.306 5.515 3.917 10.233 9.431 10.539 5.521.298 10.233-3.917 10.539-9.431.06-1.084.09-2.182.09-3.265 0-31.429-24.904-58.238-60.64-66.903.426-2.704.64-5.407.64-8.097 0-30.327-24.673-55-55-55-8.392 0-16.555 1.928-24.04 5.635-18.669-22.18-48.81-35.635-80.96-35.635s-62.292 13.455-80.96 35.635c-7.486-3.707-15.649-5.635-24.04-5.635-30.327 0-55 24.673-55 55 0 2.69.214 5.393.64 8.097-35.736 8.665-60.64 35.474-60.64 66.903 0 38.598 38.131 70 85 70 10.232 0 20.384-1.601 30.262-4.766 16.177 14.52 38.73 25.183 64.738 30.659v56.107h-20c-56.303 0-105.994 36.286-123.448 89.151-14.016 1.039-26.892 8.397-34.872 20.361-5.777 8.662-15.747 12.966-26.014 11.229-5.448-.917-10.606 2.749-11.527 8.193-.92 5.445 2.748 10.606 8.194 11.526zm410.962-48.328c-8.714 3.387-16.281 9.39-21.615 17.379-3.138 4.704-7.49 8.12-12.527 9.981-4.37-39.799-25.522-75.601-57.114-98.834 41.417 4.547 76.922 32.296 91.256 71.474zm-54.397 26.542c-4.212-1.97-7.855-5.082-10.577-9.16-8.553-12.834-22.866-20.503-38.289-20.513-.01 0-.02 0-.03 0-7.049 0-13.859 1.617-20.002 4.579v-68.83c37.257 17.505 63.377 53.078 68.898 93.924zm-88.898-171.67v164.752c-4.939 5.974-12.083 9.354-20 9.354s-15.061-3.381-20-9.354v-164.752c6.587.662 13.277.996 20 .996 6.722 0 13.413-.335 20-.996zm-60 77.746v68.829c-6.143-2.962-12.953-4.578-20.002-4.578-.009 0-.021 0-.03 0-15.423.01-29.736 7.679-38.284 20.506-2.725 4.082-6.369 7.195-10.582 9.166 5.521-40.845 31.64-76.418 68.898-93.923zm-32.041-4.092c-31.592 23.233-52.743 59.035-57.114 98.834-5.037-1.862-9.39-5.279-12.53-9.985-5.332-7.986-12.898-13.989-21.612-17.375 14.335-39.178 49.84-66.927 91.256-71.474z"/><circle cx="444.011" cy="202" r="10"/></g></svg>