<svg id="Capa_1" enable-background="new 0 0 512 512" height="512" viewBox="0 0 512 512" width="512" xmlns="http://www.w3.org/2000/svg"><g><path d="m467 65.001h-164v-50c0-8.284-6.716-15-15-15h-64c-8.284 0-15 6.716-15 15v50h-164c-24.813 0-45 20.187-45 45v212c0 24.813 20.187 45 45 45h164v43h-17c-12.913 0-19.797 15.307-11.211 24.966l64 72c5.961 6.707 16.457 6.711 22.422 0l64-72c8.579-9.65 1.713-24.966-11.211-24.966h-17v-43h164c24.813 0 45-20.187 45-45 0-13.369 0-201.979 0-212 0-24.813-20.187-45-45-45zm0 30c8.271 0 15 6.729 15 15v19h-179v-34zm15 98h-179v-34h179zm-452-34h179v34h-179zm15-64h164v34h-179v-19c0-8.271 6.729-15 15-15zm0 242c-8.271 0-15-6.729-15-15v-99h179v114zm211 137.422-30.65-34.482c7.651-.683 13.65-7.111 13.65-14.94 0-56.694 0-338.476 0-395h34v395c0 7.829 5.999 14.258 13.65 14.94zm211-137.422h-164v-114h179v99c0 8.271-6.729 15-15 15z"/><path d="m160 265.001h-80c-8.284 0-15 6.716-15 15s6.716 15 15 15h80c8.284 0 15-6.716 15-15s-6.716-15-15-15z"/></g></svg>