<svg id="Layer_3" enable-background="new 0 0 64 64" height="512" viewBox="0 0 64 64" width="512" xmlns="http://www.w3.org/2000/svg"><g><path d="m44 55h-14.586l1.293-1.293c.391-.391.391-1.023 0-1.414l-12-12c-.187-.188-.442-.293-.707-.293h-15v-2h-2v18h2v-2h8.643l10.724 8.774c.178.146.402.226.633.226h21c.552 0 1-.447 1-1v-6c0-.553-.448-1-1-1zm-1 6h-19.643l-10.724-8.774c-.178-.146-.402-.226-.633-.226h-9v-10h14.586l11 11-2.586 2.586-5.293-5.293-1.414 1.414 6 6c.195.195.451.293.707.293s.512-.098.707-.293l.707-.707h15.586z"/><path d="m61 46.184v-10.184c0-7.72-6.28-14-14-14s-14 6.28-14 14v10.184c-1.161.414-2 1.514-2 2.816 0 1.654 1.346 3 3 3h26c1.654 0 3-1.346 3-3 0-1.302-.839-2.402-2-2.816zm-1 3.816h-26c-.551 0-1-.448-1-1s.449-1 1-1h3v-2h-2v-10c0-6.617 5.383-12 12-12s12 5.383 12 12v10h-2v2h3c.551 0 1 .448 1 1s-.449 1-1 1z"/><path d="m47 32c1.103 0 2 .897 2 2h2c0-1.859-1.28-3.411-3-3.858v-2.142h-2v2.142c-1.72.447-3 1.999-3 3.858 0 2.206 1.794 4 4 4 1.103 0 2 .897 2 2s-.897 2-2 2-2-.897-2-2h-2c0 1.859 1.28 3.411 3 3.858v2.142h2v-2.142c1.72-.447 3-1.999 3-3.858 0-2.206-1.794-4-4-4-1.103 0-2-.897-2-2s.897-2 2-2z"/><path d="m53 20h-2.557l2.493-6.648c.139-.371.046-.789-.237-1.066-.284-.277-.704-.359-1.071-.214l-4.628 1.851-4.628-1.852c-.369-.146-.788-.063-1.071.214s-.376.695-.237 1.066l2.493 6.649h-2.557v2h6 6zm-7.307 0-1.962-5.23 2.897 1.159c.239.096.504.096.743 0l2.897-1.159-1.961 5.23z"/><path d="m17 33c3.091 0 6.075-.882 8.664-2.557l5.951 2.479c.125.053.255.078.385.078.26 0 .516-.102.707-.293.287-.286.372-.718.216-1.092l-2.479-5.951c1.674-2.59 2.556-5.573 2.556-8.664 0-8.822-7.178-16-16-16s-16 7.178-16 16 7.178 16 16 16zm0-30c7.72 0 14 6.28 14 14 0 2.865-.867 5.625-2.507 7.981-.195.28-.233.641-.103.956l1.752 4.205-4.205-1.752c-.315-.132-.675-.094-.956.103-2.356 1.64-5.116 2.507-7.981 2.507-7.72 0-14-6.28-14-14s6.28-14 14-14z"/><path d="m12 16c2.206 0 4-1.794 4-4s-1.794-4-4-4-4 1.794-4 4 1.794 4 4 4zm0-6c1.103 0 2 .897 2 2s-.897 2-2 2-2-.897-2-2 .897-2 2-2z"/><path d="m22 18c-2.206 0-4 1.794-4 4s1.794 4 4 4 4-1.794 4-4-1.794-4-4-4zm0 6c-1.103 0-2-.897-2-2s.897-2 2-2 2 .897 2 2-.897 2-2 2z"/><path d="m5.686 16h22.627v2h-22.627z" transform="matrix(.707 -.707 .707 .707 -7.042 17)"/></g></svg>